<?xml version="1.0" encoding="UTF-8"?>
<svg version="1.1" xmlns="http://www.w3.org/2000/svg" width="310" height="162">
<path d="M0 0 C102.3 0 204.6 0 310 0 C310 53.46 310 106.92 310 162 C207.7 162 105.4 162 0 162 C0 108.54 0 55.08 0 0 Z " fill="#FDFDFD" transform="translate(0,0)"/>
<path d="M0 0 C2.51625 -0.0825 5.0325 -0.165 7.625 -0.25 C8.79603271 -0.30462402 8.79603271 -0.30462402 9.99072266 -0.36035156 C15.11276892 -0.44097275 17.92039704 0.66666588 22 4 C24.36573729 7.01093837 24.36546655 10.20188013 24.24609375 13.97265625 C23.85242487 17.21573794 22.862112 19.33097279 21 22 C16.37393091 24.91882931 12.46060329 25.38754087 7.125 25.1875 C4.77375 25.125625 2.4225 25.06375 0 25 C0 16.75 0 8.5 0 0 Z " fill="#FD530E" transform="translate(129,57)"/>
<path d="M0 0 C3.403125 -0.061875 6.80625 -0.12375 10.3125 -0.1875 C11.38153564 -0.21481201 12.45057129 -0.24212402 13.55200195 -0.27026367 C14.81983521 -0.28150269 14.81983521 -0.28150269 16.11328125 -0.29296875 C16.97735596 -0.3086792 17.84143066 -0.32438965 18.73168945 -0.34057617 C21.48055823 0.07215356 22.33758094 0.81505883 24 3 C24.55603074 5.70383578 24.43088805 8.27860181 24 11 C22.625 13 22.625 13 21 14 C20.34 14 19.68 14 19 14 C20.65 17.63 22.3 21.26 24 25 C22.35 25 20.7 25 19 25 C18.16151196 23.54462432 17.32936066 22.08559627 16.5 20.625 C16.0359375 19.81289062 15.571875 19.00078125 15.09375 18.1640625 C14 16 14 16 14 14 C10.7 14 7.4 14 4 14 C4 17.63 4 21.26 4 25 C2.68 25 1.36 25 0 25 C0 16.75 0 8.5 0 0 Z " fill="#FD5C1D" transform="translate(69,57)"/>
<path d="M0 0 C7.59 0 15.18 0 23 0 C22.67 1.32 22.34 2.64 22 4 C16.39 4 10.78 4 5 4 C5 5.98 5 7.96 5 10 C9.62 10 14.24 10 19 10 C19 11.32 19 12.64 19 14 C14.38 14 9.76 14 5 14 C5 16.31 5 18.62 5 21 C11.27 21 17.54 21 24 21 C24 22.32 24 23.64 24 25 C16.08 25 8.16 25 0 25 C0 16.75 0 8.5 0 0 Z " fill="#FD652B" transform="translate(246,57)"/>
<path d="M0 0 C5.62458116 1.12491623 5.62458116 1.12491623 8.078125 4.125 C8.59890625 4.74890625 9.1196875 5.3728125 9.65625 6.015625 C10.1821875 6.67046875 10.708125 7.3253125 11.25 8 C11.79140625 8.65484375 12.3328125 9.3096875 12.890625 9.984375 C13.88752958 11.19062954 14.87930089 12.40115764 15.86425781 13.6171875 C16.9387115 14.9712553 16.9387115 14.9712553 18 16 C18.33 10.72 18.66 5.44 19 0 C20.32 0 21.64 0 23 0 C23 8.25 23 16.5 23 25 C17.37349316 23.87469863 17.37349316 23.87469863 14.921875 20.91015625 C14.40109375 20.29076172 13.8803125 19.67136719 13.34375 19.03320312 C12.8178125 18.38287109 12.291875 17.73253906 11.75 17.0625 C11.20859375 16.41603516 10.6671875 15.76957031 10.109375 15.10351562 C6.19699274 10.39398548 6.19699274 10.39398548 5 8 C4.67 13.61 4.34 19.22 4 25 C2.68 25 1.36 25 0 25 C0 16.75 0 8.5 0 0 Z " fill="#FD530F" transform="translate(189,57)"/>
<path d="M0 0 C7.59 0 15.18 0 23 0 C22.34 1.32 21.68 2.64 21 4 C15.39 4 9.78 4 4 4 C4 6.31 4 8.62 4 11 C8.62 11 13.24 11 18 11 C18 11.99 18 12.98 18 14 C13.38 14 8.76 14 4 14 C4 16.31 4 18.62 4 21 C10.27 21 16.54 21 23 21 C23 22.32 23 23.64 23 25 C15.41 25 7.82 25 0 25 C0 16.75 0 8.5 0 0 Z " fill="#FD510E" transform="translate(159,57)"/>
<path d="M0 0 C7.26 0 14.52 0 22 0 C21.67 1.32 21.34 2.64 21 4 C15.39 4 9.78 4 4 4 C4 6.31 4 8.62 4 11 C8.62 11 13.24 11 18 11 C18 11.99 18 12.98 18 14 C13.38 14 8.76 14 4 14 C4 16.31 4 18.62 4 21 C10.27 21 16.54 21 23 21 C23 22.32 23 23.64 23 25 C15.41 25 7.82 25 0 25 C0 16.75 0 8.5 0 0 Z " fill="#FD4E09" transform="translate(100,57)"/>
<path d="M0 0 C10.08839779 -0.60773481 10.08839779 -0.60773481 14.1875 2.125 C16.33038619 5.52406085 16.65741915 7.05548508 16 11 C13.73529412 15.63235294 13.73529412 15.63235294 11 17 C7.32984725 17.1377685 3.67388652 17.04271961 0 17 C0 11.39 0 5.78 0 0 Z " fill="#FEF8F6" transform="translate(133,61)"/>
<path d="M0 0 C-0.66015625 1.96484375 -0.66015625 1.96484375 -2 4 C-4.49609375 4.50390625 -4.49609375 4.50390625 -7.4375 4.5625 C-11.38201842 4.58640313 -11.38201842 4.58640313 -14.82421875 6.24609375 C-16.31152082 8.46469386 -16.40156922 9.8430776 -16.375 12.5 C-16.38273438 13.2734375 -16.39046875 14.046875 -16.3984375 14.84375 C-16.13372971 17.02924047 -16.13372971 17.02924047 -14.89453125 18.73828125 C-12.10225818 20.59787754 -9.63182414 20.52317702 -6.3125 20.6875 C-5.13300781 20.75324219 -3.95351562 20.81898437 -2.73828125 20.88671875 C-1.83464844 20.92410156 -0.93101562 20.96148437 0 21 C0 22.32 0 23.64 0 25 C-13.02859944 25.56921066 -13.02859944 25.56921066 -18 22 C-21.11344625 19.10127418 -21.64312965 16.05076064 -21.9921875 11.953125 C-22.00948231 7.62942184 -20.3973205 5.49665063 -17.75 2.1875 C-12.8838913 -1.7249492 -5.85544443 -0.36095205 0 0 Z " fill="#FD5613" transform="translate(240,57)"/>
<path d="M0 0 C7.92 0 15.84 0 24 0 C23.34 1.32 22.68 2.64 22 4 C19.36 4 16.72 4 14 4 C14 10.93 14 17.86 14 25 C12.68 25 11.36 25 10 25 C10 18.07 10 11.14 10 4 C6.7 4 3.4 4 0 4 C0 2.68 0 1.36 0 0 Z " fill="#FD5411" transform="translate(40,57)"/>
<path d="M0 0 C0.99 0.33 1.98 0.66 3 1 C3 6.61 3 12.22 3 18 C9.6 18 16.2 18 23 18 C23 19.32 23 20.64 23 22 C15.41 22 7.82 22 0 22 C0 14.74 0 7.48 0 0 Z " fill="#FD5611" transform="translate(247,60)"/>
<path d="M0 0 C6.93 0 13.86 0 21 0 C20.67 0.99 20.34 1.98 20 3 C14.39 3 8.78 3 3 3 C3 5.31 3 7.62 3 10 C7.62 10 12.24 10 17 10 C16.67 10.99 16.34 11.98 16 13 C13.89551062 12.85890014 11.7914123 12.71195825 9.6875 12.5625 C8.51574219 12.48128906 7.34398438 12.40007812 6.13671875 12.31640625 C3 12 3 12 0 11 C0 7.37 0 3.74 0 0 Z " fill="#FD5712" transform="translate(101,58)"/>
<path d="M0 0 C4.62 0 9.24 0 14 0 C14 0.33 14 0.66 14 1 C11.94921875 1.22786458 9.8984375 1.45572917 7.84765625 1.68359375 C5.98859771 1.81886614 5.98859771 1.81886614 5 3 C4.84379445 4.41327947 4.74943827 5.8335459 4.68359375 7.25390625 C4.64169922 8.10791016 4.59980469 8.96191406 4.55664062 9.84179688 C4.49766602 11.18854492 4.49766602 11.18854492 4.4375 12.5625 C4.39431641 13.46419922 4.35113281 14.36589844 4.30664062 15.29492188 C4.20021858 17.52978485 4.09820012 19.76476308 4 22 C4.66 22.33 5.32 22.66 6 23 C5.67 23.33 5.34 23.66 5 24 C3.35 24 1.7 24 0 24 C0 16.08 0 8.16 0 0 Z " fill="#FD4C00" transform="translate(129,57)"/>
<path d="M0 0 C4.95 0 9.9 0 15 0 C15 1.98 15 3.96 15 6 C10.05 6 5.1 6 0 6 C0 4.02 0 2.04 0 0 Z " fill="#FDFCFB" transform="translate(74,61)"/>
<path d="M0 0 C1.32 0 2.64 0 4 0 C4.36717663 7.4659249 4.36717663 7.4659249 2.625 10 C1 11 1 11 -1 11 C0.65 14.63 2.3 18.26 4 22 C2.35 22 0.7 22 -1 22 C-4.03616654 18.44035648 -4.31924758 15.57588204 -4 11 C-3.34 11 -2.68 11 -2 11 C-1.34 7.37 -0.68 3.74 0 0 Z " fill="#FD530E" transform="translate(89,60)"/>
<path d="M0 0 C1.98 0 3.96 0 6 0 C6.95024979 3.69541586 6.95024979 6.30458414 6 10 C4.02 10 2.04 10 0 10 C0 6.7 0 3.4 0 0 Z " fill="#636363" transform="translate(99,92)"/>
<path d="M0 0 C0.66 0 1.32 0 2 0 C2 2.97 2 5.94 2 9 C8.6 8.67 15.2 8.34 22 8 C21.67 9.32 21.34 10.64 21 12 C14.07 11.67 7.14 11.34 0 11 C0 7.37 0 3.74 0 0 Z " fill="#FE4D00" transform="translate(160,70)"/>
<path d="M0 0 C0.66 0 1.32 0 2 0 C2 0.99 2 1.98 2 3 C2.804375 2.979375 3.60875 2.95875 4.4375 2.9375 C7 3 7 3 8 4 C8.1875 6.4375 8.1875 6.4375 8 9 C7.34 9.66 6.68 10.32 6 11 C2.875 10.625 2.875 10.625 0 10 C0 6.7 0 3.4 0 0 Z " fill="#1C1C1C" transform="translate(191,91)"/>
<path d="M0 0 C0.66 0 1.32 0 2 0 C2 3.3 2 6.6 2 10 C-0.875 10.625 -0.875 10.625 -4 11 C-4.66 10.34 -5.32 9.68 -6 9 C-5.625 5.875 -5.625 5.875 -5 3 C-3.35 3 -1.7 3 0 3 C0 2.01 0 1.02 0 0 Z " fill="#262626" transform="translate(148,91)"/>
<path d="M0 0 C1.32 0 2.64 0 4 0 C4 8.25 4 16.5 4 25 C3.67 25 3.34 25 3 25 C2.77213542 22.94921875 2.54427083 20.8984375 2.31640625 18.84765625 C2.18113386 16.98859771 2.18113386 16.98859771 1 16 C0.76321284 13.30764224 0.57801975 10.63501844 0.4375 7.9375 C0.39431641 7.17888672 0.35113281 6.42027344 0.30664062 5.63867188 C0.20026367 3.75934562 0.09960066 1.87969756 0 0 Z " fill="#FD4700" transform="translate(208,57)"/>
<path d="M0 0 C2.4375 0.1875 2.4375 0.1875 3.4375 1.1875 C3.625 3.625 3.625 3.625 3.4375 6.1875 C2.7775 6.8475 2.1175 7.5075 1.4375 8.1875 C-1.1875 7.8125 -1.1875 7.8125 -3.5625 7.1875 C-4.1875 4.8125 -4.1875 4.8125 -4.5625 2.1875 C-2.5625 0.1875 -2.5625 0.1875 0 0 Z " fill="#2D2D2D" transform="translate(167.5625,93.8125)"/>
<path d="M0 0 C0.99 0.33 1.98 0.66 3 1 C3 6.61 3 12.22 3 18 C2.01 18.33 1.02 18.66 0 19 C0 12.73 0 6.46 0 0 Z " fill="#FD4D00" transform="translate(247,60)"/>
<path d="M0 0 C2.625 0.375 2.625 0.375 5 1 C5.38218767 2.65614657 5.71395102 4.32457024 6 6 C5 7 5 7 1.9375 7.0625 C0.968125 7.041875 -0.00125 7.02125 -1 7 C-1.625 4.625 -1.625 4.625 -2 2 C-1.34 1.34 -0.68 0.68 0 0 Z " fill="#252525" transform="translate(126,94)"/>
<path d="M0 0 C2.5 0.125 2.5 0.125 3.5 1.125 C3.6875 3.5625 3.6875 3.5625 3.5 6.125 C2.84 6.785 2.18 7.445 1.5 8.125 C-2.03571429 7.58928571 -2.03571429 7.58928571 -3.5 6.125 C-3.625 3.625 -3.625 3.625 -3.5 1.125 C-2.5 0.125 -2.5 0.125 0 0 Z " fill="#424242" transform="translate(111.5,93.875)"/>
<path d="M0 0 C1.2065625 0.0309375 1.2065625 0.0309375 2.4375 0.0625 C2.7675 1.3825 3.0975 2.7025 3.4375 4.0625 C1.7875 4.0625 0.1375 4.0625 -1.5625 4.0625 C-1.5625 4.7225 -1.5625 5.3825 -1.5625 6.0625 C0.0875 5.7325 1.7375 5.4025 3.4375 5.0625 C3.4375 5.7225 3.4375 6.3825 3.4375 7.0625 C1.0625 7.6875 1.0625 7.6875 -1.5625 8.0625 C-3.5625 6.0625 -3.5625 6.0625 -3.75 3.5 C-3.4919783 0.14571793 -3.38163728 0.08247896 0 0 Z " fill="#262626" transform="translate(207.5625,93.9375)"/>
<path d="M0 0 C4.62 0 9.24 0 14 0 C14 0.99 14 1.98 14 3 C9.38 3 4.76 3 0 3 C0 2.01 0 1.02 0 0 Z " fill="#FD4A02" transform="translate(251,68)"/>
<path d="M0 0 C0 0.66 0 1.32 0 2 C-0.66 2 -1.32 2 -2 2 C-2.33 2.66 -2.66 3.32 -3 4 C-6.63 3.67 -10.26 3.34 -14 3 C-13.34 2.01 -12.68 1.02 -12 0 C-4.08510638 -1.53191489 -4.08510638 -1.53191489 0 0 Z " fill="#FD5C1B" transform="translate(147,58)"/>
<path d="M0 0 C1.65 0 3.3 0 5 0 C5.33 1.65 5.66 3.3 6 5 C4.35 5.33 2.7 5.66 1 6 C0.67 6.99 0.34 7.98 0 9 C0 6.03 0 3.06 0 0 Z " fill="#575757" transform="translate(156,92)"/>
<path d="M0 0 C0.33 0 0.66 0 1 0 C1 1.98 1 3.96 1 6 C5.62 6 10.24 6 15 6 C15 6.33 15 6.66 15 7 C8.565 7.495 8.565 7.495 2 8 C1.67 10.97 1.34 13.94 1 17 C0.67 17 0.34 17 0 17 C-0.89316269 11.06390334 -0.97040422 5.93024803 0 0 Z " fill="#FC8B68" transform="translate(250,61)"/>
<path d="M0 0 C3.63 0 7.26 0 11 0 C10.67 0.99 10.34 1.98 10 3 C7.03 3 4.06 3 1 3 C0.67 2.01 0.34 1.02 0 0 Z " fill="#FD4900" transform="translate(229,57)"/>
<path d="M0 0 C1.65 0.33 3.3 0.66 5 1 C4.01 1.495 4.01 1.495 3 2 C2.34 1.67 1.68 1.34 1 1 C1 1.66 1 2.32 1 3 C2.32 3.33 3.64 3.66 5 4 C4.67 5.32 4.34 6.64 4 8 C2.35 7.67 0.7 7.34 -1 7 C-0.67 6.34 -0.34 5.68 0 5 C0.66 5 1.32 5 2 5 C1.01 4.34 0.02 3.68 -1 3 C-0.67 2.01 -0.34 1.02 0 0 Z " fill="#333333" transform="translate(181,94)"/>
<path d="M0 0 C0.66 0 1.32 0 2 0 C2.66 0.99 3.32 1.98 4 3 C4.99 2.01 5.98 1.02 7 0 C6.52269162 1.4589426 6.04308958 2.91713496 5.5625 4.375 C5.29566406 5.18710938 5.02882813 5.99921875 4.75390625 6.8359375 C4 9 4 9 3 11 C2.34 10.67 1.68 10.34 1 10 C1.020625 9.0925 1.04125 8.185 1.0625 7.25 C1.0110245 4.57327412 0.7784983 2.53011948 0 0 Z " fill="#212121" transform="translate(116,94)"/>
<path d="M0 0 C2.75 -0.3125 2.75 -0.3125 6 0 C8.375 2.5 8.375 2.5 10 5 C8.02 5 6.04 5 4 5 C3.67 4.34 3.34 3.68 3 3 C2.01 2.67 1.02 2.34 0 2 C0 1.34 0 0.68 0 0 Z " fill="#D8D8D8" transform="translate(174,95)"/>
<path d="M0 0 C1.98 0 3.96 0 6 0 C5.34 1.32 4.68 2.64 4 4 C2.68 3.67 1.36 3.34 0 3 C0 2.01 0 1.02 0 0 Z " fill="#7F7F7F" transform="translate(109,98)"/>
<path d="M0 0 C0.99 0 1.98 0 3 0 C3 1.65 3 3.3 3 5 C1.68 5 0.36 5 -1 5 C-0.67 3.35 -0.34 1.7 0 0 Z " fill="#E5E5E5" transform="translate(166,95)"/>
<path d="M0 0 C4.875 1.75 4.875 1.75 6 4 C5.67 4.66 5.34 5.32 5 6 C3.0625 5.25 3.0625 5.25 1 4 C0.25 1.875 0.25 1.875 0 0 Z " fill="#FD4B01" transform="translate(197,66)"/>
<path d="M0 0 C0.99 0.33 1.98 0.66 3 1 C3 2.32 3 3.64 3 5 C1.68 5 0.36 5 -1 5 C-0.67 3.35 -0.34 1.7 0 0 Z " fill="#EEEEEE" transform="translate(194,95)"/>
<path d="M0 0 C0.99 0.33 1.98 0.66 3 1 C3 2.32 3 3.64 3 5 C1.68 5 0.36 5 -1 5 C-0.67 3.35 -0.34 1.7 0 0 Z " fill="#EDEDED" transform="translate(145,95)"/>
<path d="M0 0 C0.99 0.33 1.98 0.66 3 1 C3 2.32 3 3.64 3 5 C1.68 5 0.36 5 -1 5 C-0.67 3.35 -0.34 1.7 0 0 Z " fill="#EFEFEF" transform="translate(127,95)"/>
<path d="M0 0 C1.65 0 3.3 0 5 0 C5 0.99 5 1.98 5 3 C3.35 3 1.7 3 0 3 C0 2.01 0 1.02 0 0 Z " fill="#6B6B6B" transform="translate(205,94)"/>
<path d="M0 0 C0.66 0 1.32 0 2 0 C2 0.99 2 1.98 2 3 C3.65 3 5.3 3 7 3 C7.33 3.66 7.66 4.32 8 5 C7.01 6.485 7.01 6.485 6 8 C5.67 7.01 5.34 6.02 5 5 C2.98491642 4.26676204 2.98491642 4.26676204 1 4 C0.67 2.68 0.34 1.36 0 0 Z " fill="#3E3E3E" transform="translate(191,91)"/>
</svg>
