<svg id="Layer_1" data-name="Layer 1" xmlns="http://www.w3.org/2000/svg" viewBox="0 0 1511.08 208.5"><title>trendence</title><path d="M202.1,398.15H140.6V376H290.3v22.2H228.5v180H202.1Z" transform="translate(-140.6 -372.65)"/><path d="M312.8,378.65c13.2-2.7,32.1-4.2,50.1-4.2,27.9,0,45.9,5.1,58.5,16.51,10.2,9,15.9,22.79,15.9,38.4,0,26.7-16.8,44.4-38.1,51.6v.9c15.6,5.4,24.9,19.8,29.7,40.8,6.6,28.2,11.4,47.7,15.6,55.5h-27c-3.3-5.7-7.8-23.1-13.5-48.3-6-27.9-16.8-38.4-40.5-39.3H338.9v87.6H312.8Zm26.1,92.11h26.7c27.9,0,45.6-15.3,45.6-38.4,0-26.11-18.9-37.51-46.5-37.81-12.6,0-21.6,1.2-25.8,2.41Z" transform="translate(-140.6 -372.65)"/><path d="M578.9,483.36H500.3v72.9h87.6v21.9H474.2V376H583.4v21.9H500.3v63.91h78.6Z" transform="translate(-140.6 -372.65)"/><path d="M621.79,578.16V376h28.5l64.8,102.31a572.37,572.37,0,0,1,36.3,65.7l.6-.3c-2.4-27-3-51.6-3-83.1V376h24.6V578.16h-26.4L683,475.56c-14.1-22.5-27.6-45.6-37.8-67.5l-.9.29c1.5,25.51,2.1,49.81,2.1,83.41v86.4Z" transform="translate(-140.6 -372.65)"/><path d="M819.19,378.65a373.85,373.85,0,0,1,55.5-4.2c37.5,0,64.2,8.7,81.9,25.2,18,16.51,28.5,39.91,28.5,72.61,0,33-10.2,60-29.1,78.6-18.9,18.9-50.1,29.1-89.4,29.1a421.27,421.27,0,0,1-47.4-2.4Zm26.1,178.81c6.6,1.2,16.2,1.5,26.4,1.5,55.8,0,86.1-31.2,86.1-85.8.3-47.7-26.7-78-81.9-78-13.5,0-23.7,1.2-30.6,2.7Z" transform="translate(-140.6 -372.65)"/><path d="M1123.69,483.36h-78.61v72.9h87.61v21.9H1019V376h109.21v21.9h-83.11v63.91h78.61Z" transform="translate(-140.6 -372.65)"/><path d="M1166.58,578.16V376h28.5l64.8,102.31a572.37,572.37,0,0,1,36.3,65.7l.6-.3c-2.4-27-3-51.6-3-83.1V376h24.6V578.16H1292l-64.2-102.6c-14.1-22.5-27.6-45.6-37.8-67.5l-.9.29c1.5,25.51,2.1,49.81,2.1,83.41v86.4Z" transform="translate(-140.6 -372.65)"/><path d="M1505.28,571.56c-9.6,4.8-28.8,9.6-53.4,9.6-57,0-99.9-36-99.9-102.3,0-63.3,42.9-106.21,105.6-106.21,25.2,0,41.1,5.4,48,9l-6.3,21.31c-9.9-4.81-24-8.41-40.8-8.41-47.4,0-78.9,30.3-78.9,83.41,0,49.5,28.5,81.3,77.7,81.3,15.9,0,32.1-3.3,42.6-8.4Z" transform="translate(-140.6 -372.65)"/><path d="M1642.67,483.36h-78.6v72.9h87.6v21.9H1538V376h109.2v21.9h-83.1v63.91h78.6Z" transform="translate(-140.6 -372.65)"/></svg>